<svg width="71" height="73" viewBox="0 0 71 73" fill="none" xmlns="http://www.w3.org/2000/svg">
<path d="M50.5 0.25C51.88 0.25 53 1.1935 53 2.36225C53 4.33 53.365 7.543 55.36 10.2077C57.235 12.7067 60.775 15.0358 68 15.0358C69.38 15.0358 70.5 15.9792 70.5 17.148C70.4973 17.7097 70.2326 18.2476 69.7639 18.6436C69.2952 19.0396 68.6608 19.2614 68 19.2603C66.155 19.2603 62.3 20.208 58.9 22.4138C55.585 24.56 53 27.688 53 31.9337C52.996 32.4947 52.7307 33.0315 52.2622 33.4266C51.7936 33.8217 51.16 34.0429 50.5 34.0418C49.8391 34.0429 49.2048 33.8211 48.7361 33.4251C48.2674 33.0291 48.0026 32.4912 48 31.9295C48 29.8045 47.225 26.5703 44.97 23.9225C42.81 21.3895 39.185 19.2603 33 19.2603C32.3391 19.2614 31.7048 19.0396 31.2361 18.6436C30.7674 18.2476 30.5026 17.7097 30.5 17.148C30.5 15.9792 31.62 15.0358 33 15.0358C35.56 15.0358 39.275 14.9932 42.365 13.476C45.185 12.0862 48 9.175 48 2.36225C48 1.1935 49.12 0.25 50.5 0.25ZM50.7 11.8525C49.2709 14.3006 46.939 16.2842 44.06 17.5008C46.105 18.5803 47.74 19.9487 49.03 21.4532C49.68 22.2182 50.23 23.0088 50.7 23.8078C52.0637 21.9729 53.8088 20.3643 55.85 19.0605C56.635 18.5505 57.45 18.0915 58.275 17.6792C55.0762 16.4868 52.4195 14.4434 50.705 11.8567M14.43 40.7568C11.6584 38.9932 9.40834 36.7049 7.85828 34.0735C6.30821 31.4421 5.50077 28.5398 5.5 25.597C5.5 15.0995 15.575 6.591 28 6.591C32.5 6.591 36.695 7.70875 40.21 9.62975C40.76 9.3025 41.31 8.82225 41.785 8.04025C42.085 7.53025 42.395 6.85025 42.62 5.91525C38.236 3.58775 33.1689 2.3578 28 2.3665C12.81 2.3665 0.5 12.7663 0.5 25.597C0.5 32.6775 4.25 39.0142 10.155 43.277L4.065 62.1427C3.215 64.7777 4.45 67.859 7.765 69.1127C15.95 72.2025 31.015 74.8545 47.615 69.151C51.165 67.927 52.715 64.629 51.685 61.7135L45.395 43.9995C45.3581 43.8931 45.3113 43.7893 45.255 43.6892C47.5165 42.1472 49.4773 40.3113 51.065 38.2492C49.2544 38.3677 47.4547 37.9237 46 36.9998C43.8982 39.3665 41.1781 41.2856 38.0543 42.6058C34.9305 43.9261 31.4886 44.6112 28 44.6073C23.103 44.6156 18.3367 43.2651 14.425 40.761M40.925 46.116L46.895 62.9375C47.26 63.9575 46.675 64.918 45.725 65.241C30.66 70.426 17.03 67.9907 9.805 65.258C9.09 64.9902 8.58 64.2168 8.89 63.2605L14.51 45.8525C18.6316 47.8121 23.2774 48.8367 28 48.8275C32.67 48.8275 37.07 47.8415 40.925 46.1075" fill="#CF7106"/>
</svg>
