<svg width="27" height="37" viewBox="0 0 27 37" fill="none" xmlns="http://www.w3.org/2000/svg">
<path d="M18.3205 4.74359C18.3205 6.00167 17.8126 7.20822 16.9084 8.09781C16.0043 8.98741 14.778 9.48718 13.4993 9.48718C12.2206 9.48718 10.9944 8.98741 10.0902 8.09781C9.18605 7.20822 8.6781 6.00167 8.6781 4.74359C8.6781 3.48551 9.18605 2.27896 10.0902 1.38937C10.9944 0.49977 12.2206 0 13.4993 0C14.778 0 16.0043 0.49977 16.9084 1.38937C17.8126 2.27896 18.3205 3.48551 18.3205 4.74359ZM20.249 36.0513C20.249 36.3029 20.1474 36.5442 19.9666 36.7221C19.7857 36.9 19.5405 37 19.2848 37H2.75381C2.1552 37 1.57289 36.8081 1.09506 36.4533C0.617236 36.0985 0.26991 35.6002 0.105675 35.0339C-0.0585597 34.4675 -0.0307582 33.8639 0.18487 33.3144C0.400499 32.765 0.792211 32.2997 1.30069 31.9889L6.39574 28.8752C6.8136 28.6198 7.15836 28.2638 7.39744 27.8408C7.63652 27.4178 7.76201 26.9418 7.76207 26.4578V25.6154H10.0512C11.074 25.6152 12.0549 25.2152 12.7781 24.5035L13.4993 23.7948L14.2196 24.5035C14.5779 24.8561 15.0033 25.1358 15.4715 25.3266C15.9398 25.5174 16.4416 25.6155 16.9484 25.6154H19.2848V26.4616C19.2849 26.9442 19.4098 27.4188 19.6476 27.8408C19.8854 28.2629 20.2284 28.6185 20.6443 28.8742L25.7027 31.9851C26.2109 32.2972 26.6019 32.7637 26.8167 33.3139C27.0314 33.8641 27.0583 34.4681 26.8931 35.0347C26.728 35.6012 26.3798 36.0995 25.9013 36.4541C25.4228 36.8086 24.84 37.0003 24.241 37H22.0136C22.1196 36.703 22.1775 36.3833 22.1775 36.0513V35.8141C22.1774 35.1247 21.923 34.4588 21.4615 33.9401C21.0001 33.4214 20.363 33.085 19.6685 32.9936L6.92608 31.3162C6.67464 31.2868 6.42155 31.3559 6.22146 31.5086C6.02137 31.6613 5.89033 31.8852 5.85665 32.1321C5.82297 32.379 5.88935 32.6291 6.04146 32.8282C6.19356 33.0274 6.41918 33.1597 6.66959 33.1966L19.413 34.8739C19.6444 34.9045 19.8567 35.0166 20.0105 35.1895C20.1642 35.3624 20.249 35.5844 20.249 35.8141V36.0513ZM15.584 23.162L14.4635 22.0596V18.5095C14.6063 18.5911 14.7413 18.6916 14.8627 18.8112L16.6746 20.5948C16.8555 20.7724 17.1007 20.872 17.3563 20.8718H20.249C20.4133 20.8717 20.5748 20.8303 20.7183 20.7516C20.8618 20.6728 20.9824 20.5593 21.0688 20.4217C21.1551 20.2842 21.2044 20.1273 21.2117 19.9658C21.2191 19.8043 21.1845 19.6436 21.111 19.499L20.1468 17.6016C20.0926 17.4862 20.0155 17.3828 19.9199 17.2973C19.8243 17.2119 19.7123 17.1462 19.5904 17.1041C19.4686 17.0621 19.3394 17.0446 19.2105 17.0526C19.0816 17.0606 18.9557 17.094 18.8402 17.1509C18.7247 17.2077 18.622 17.2867 18.5381 17.3834C18.4543 17.48 18.391 17.5922 18.3521 17.7134C18.3131 17.8345 18.2993 17.9621 18.3115 18.0886C18.3236 18.2151 18.3614 18.3379 18.4227 18.4497L18.6889 18.9744H17.7555L16.2262 17.4697C15.5029 16.7583 14.522 16.3586 13.4993 16.3586C12.4766 16.3586 11.4957 16.7583 10.7724 17.4697L9.24315 18.9744H8.30976L8.57589 18.4497C8.63718 18.3379 8.67502 18.2151 8.68716 18.0886C8.6993 17.9621 8.68549 17.8345 8.64655 17.7134C8.60761 17.5922 8.54434 17.48 8.46049 17.3834C8.37664 17.2867 8.27391 17.2077 8.15841 17.1509C8.04291 17.094 7.91698 17.0606 7.78811 17.0526C7.65923 17.0446 7.53003 17.0621 7.40817 17.1041C7.28631 17.1462 7.17427 17.2119 7.0787 17.2973C6.98313 17.3828 6.90598 17.4862 6.85183 17.6016L5.88759 19.499C5.81415 19.6436 5.77948 19.8043 5.78687 19.9658C5.79426 20.1273 5.84347 20.2842 5.92983 20.4217C6.01618 20.5593 6.13682 20.6728 6.2803 20.7516C6.42377 20.8303 6.58532 20.8717 6.74962 20.8718H9.64234C9.89806 20.8717 10.1433 20.7718 10.3241 20.5938L12.1359 18.8112C12.2583 18.6916 12.3924 18.5911 12.5351 18.5095V22.0596L11.4146 23.162C11.053 23.5179 10.5626 23.7178 10.0512 23.7179H4.22909C3.9155 23.718 3.60663 23.6427 3.32927 23.4987C3.0519 23.3548 2.81439 23.1464 2.63734 22.8918C2.46029 22.6371 2.34903 22.3438 2.31321 22.0373C2.27738 21.7308 2.31807 21.4203 2.43175 21.1327L5.32833 13.8038C5.61004 13.0912 6.10398 12.479 6.74542 12.0473C7.38686 11.6156 8.14588 11.3846 8.92302 11.3846H18.0756C18.8527 11.3846 19.6118 11.6156 20.2532 12.0473C20.8946 12.479 21.3886 13.0912 21.6703 13.8038L24.5678 21.1327C24.6816 21.4204 24.7222 21.7311 24.6863 22.0377C24.6504 22.3444 24.539 22.6379 24.3617 22.8926C24.1844 23.1473 23.9467 23.3556 23.669 23.4994C23.3914 23.6432 23.0823 23.7183 22.7686 23.7179H16.9465C16.435 23.7178 15.9446 23.5179 15.583 23.162" fill="#CF7106"/>
<path d="M15.6766 12.5L16.3422 13.1656C16.5195 12.9508 16.625 12.675 16.625 12.375C16.625 12.2602 16.6094 12.1492 16.5805 12.0437C16.2391 12.1172 15.9297 12.2773 15.6766 12.5ZM15.5 12.6766C15.2773 12.9297 15.1172 13.2391 15.0438 13.5805C15.1492 13.6094 15.2602 13.625 15.375 13.625C15.675 13.625 15.9508 13.5195 16.1664 13.343L15.5 12.6766ZM17 12C16.943 12 16.8859 12.0023 16.8297 12.007C16.8594 12.125 16.875 12.2484 16.875 12.375C16.875 12.7445 16.7414 13.082 16.5203 13.3437L17 13.8234L18.3234 12.5C17.9703 12.1891 17.507 12 17 12ZM15.375 13.875C15.2484 13.875 15.125 13.8594 15.007 13.8297C15.0023 13.8863 15 13.9432 15 14C15 14.507 15.1891 14.9703 15.5 15.3234L16.8234 14L16.3437 13.5203C16.082 13.7414 15.7445 13.875 15.375 13.875ZM18.993 14.1703C18.9977 14.1141 19 14.057 19 14C19 13.493 18.8109 13.0297 18.5 12.6766L17.1766 14L17.6563 14.4797C17.9172 14.2586 18.2555 14.125 18.625 14.125C18.7516 14.125 18.875 14.1406 18.993 14.1703ZM18.9562 14.4195C18.8508 14.3906 18.7398 14.375 18.625 14.375C18.325 14.375 18.0492 14.4805 17.8336 14.657L18.5 15.3234C18.7227 15.0711 18.8836 14.7617 18.9562 14.4195ZM17.657 14.8336C17.4805 15.0492 17.375 15.325 17.375 15.625C17.375 15.7398 17.3906 15.8508 17.4195 15.9562C17.7609 15.8828 18.0703 15.7227 18.3234 15.5L17.6578 14.8344L17.657 14.8336ZM17.4797 14.6562L17 14.1766L15.6766 15.5C16.0289 15.8109 16.4922 16 17 16C17.057 16 17.1141 15.9977 17.1703 15.993C17.1406 15.875 17.125 15.7516 17.125 15.625C17.125 15.2555 17.2586 14.918 17.4797 14.6562Z" fill="black"/>
</svg>
