<svg width="69" height="61" viewBox="0 0 69 61" fill="none" xmlns="http://www.w3.org/2000/svg">
<path d="M5.98438 54.4531V0.84375H0.28125V55.5938C0.535398 56.882 1.22977 58.0418 2.24533 58.8742C3.26089 59.7067 4.53438 60.1599 5.8475 60.1562H68.7188V54.4531H5.98438Z" fill="#CF7106"/>
<path d="M12.3718 33.3516C12.3718 31.7767 13.6485 30.5 15.2234 30.5V30.5C16.7983 30.5 18.075 31.7767 18.075 33.3516V45.4422C18.075 47.0171 16.7983 48.2937 15.2234 48.2937V48.2937C13.6485 48.2937 12.3718 47.0171 12.3718 45.4422V33.3516ZM27.2456 15.1244C27.2456 13.5369 28.5325 12.25 30.12 12.25V12.25C31.7074 12.25 32.9943 13.5369 32.9943 15.1244V45.4194C32.9943 47.0068 31.7074 48.2937 30.12 48.2937V48.2937C28.5325 48.2937 27.2456 47.0068 27.2456 45.4194V15.1244ZM42.165 24.2266C42.165 22.6517 43.4416 21.375 45.0165 21.375V21.375C46.5914 21.375 47.8681 22.6517 47.8681 24.2266V45.4422C47.8681 47.0171 46.5914 48.2937 45.0165 48.2937V48.2937C43.4416 48.2937 42.165 47.0171 42.165 45.4422V24.2266ZM57.0843 8.25782C57.0843 6.68294 58.361 5.40625 59.9359 5.40625V5.40625C61.5108 5.40625 62.7874 6.68294 62.7874 8.25781V45.4422C62.7874 47.0171 61.5108 48.2937 59.9359 48.2937V48.2937C58.361 48.2937 57.0843 47.0171 57.0843 45.4422V8.25782Z" fill="#CF7106"/>
</svg>
