<svg width="70" height="73" viewBox="0 0 70 73" fill="none" xmlns="http://www.w3.org/2000/svg">
<path d="M50 0C51.38 0 52.5 0.953251 52.5 2.13408C52.5 4.12217 52.865 7.36837 54.86 10.0607C56.735 12.5855 60.275 14.9386 67.5 14.9386C68.88 14.9386 70 15.8918 70 17.0726C69.9974 17.6402 69.7326 18.1836 69.2639 18.5837C68.7952 18.9838 68.1609 19.2079 67.5 19.2067C65.655 19.2067 61.8 20.1643 58.4 22.3928C55.085 24.5612 52.5 27.7216 52.5 32.0112C52.496 32.578 52.2307 33.1203 51.7622 33.5195C51.2936 33.9186 50.66 34.1421 50 34.141C49.3391 34.1421 48.7048 33.9181 48.2361 33.518C47.7674 33.1179 47.5026 32.5744 47.5 32.0069C47.5 29.8599 46.725 26.5923 44.47 23.9171C42.31 21.358 38.685 19.2067 32.5 19.2067C31.8391 19.2079 31.2048 18.9838 30.7361 18.5837C30.2674 18.1836 30.0026 17.6402 30 17.0726C30 15.8918 31.12 14.9386 32.5 14.9386C35.06 14.9386 38.775 14.8956 41.865 13.3627C44.685 11.9586 47.5 9.01724 47.5 2.13408C47.5 0.953251 48.62 0 50 0ZM50.2 11.7224C49.7871 12.4371 49.2988 13.1125 48.7437 13.7415C47.0365 15.6758 46.8606 19.4553 48.53 21.4224C49.4148 22.4744 51.1253 22.5698 52.1027 21.6033C53.0735 20.6432 54.1616 19.7719 55.35 19.0049C56.2449 18.4175 56.1734 16.9508 55.2466 16.4149C53.1748 15.217 51.4439 13.6152 50.205 11.7267M13.93 40.9254C11.1584 39.1436 8.90835 36.8317 7.35828 34.173C5.80821 31.5144 5.00078 28.5822 5 25.609C5 15.003 15.075 6.40653 27.5 6.40653C31.159 6.40653 34.6164 7.15318 37.6705 8.47566C38.9614 9.03462 40.5602 9.07635 41.285 7.87076C41.9707 6.69306 41.2894 5.26018 40.041 4.71368C36.1676 3.0181 31.8702 2.13094 27.5 2.13837C12.31 2.13837 0 12.6456 0 25.609C0 31.3314 2.39958 36.573 6.38232 40.6458C8.18926 42.4936 9.12422 45.1329 8.33765 47.5948L3.565 62.5324C2.715 65.1946 3.95 68.3077 7.265 69.5744C15.45 72.6961 30.515 75.3755 47.115 69.6131C50.665 68.3764 52.215 65.0443 51.185 62.0987L44.895 44.2016C44.8318 44.0173 44.8778 43.8039 45.0369 43.6913C46.1039 42.9362 47.1018 42.1141 48.0227 41.2324C49.0986 40.2023 48.1825 38.3571 46.801 37.7999C46.0054 37.479 45.0867 37.6117 44.4744 38.2127C42.5416 40.1097 40.1919 41.6673 37.5543 42.7936C34.4306 44.1274 30.9886 44.8197 27.5 44.8157C22.603 44.8241 17.8367 43.4597 13.925 40.9297M40.425 46.34L46.395 63.3354C46.76 64.3659 46.175 65.3363 45.225 65.6627C30.16 70.9012 16.53 68.4408 9.305 65.6798C8.59 65.4093 8.08 64.6278 8.39 63.6617L11.9115 52.6412C13.0203 49.1709 16.9575 47.5246 20.5131 48.3189C22.7852 48.8264 25.133 49.0842 27.5 49.0795C32.17 49.0795 36.57 48.0833 40.425 46.3314" fill="#DC9E56"/>
</svg>
