<svg width="27" height="37" viewBox="0 0 27 37" fill="none" xmlns="http://www.w3.org/2000/svg">
<path d="M18.3205 4.74359C18.3205 6.00167 17.8126 7.20822 16.9084 8.09781C16.0043 8.98741 14.778 9.48718 13.4993 9.48718C12.2206 9.48718 10.9944 8.98741 10.0902 8.09781C9.18605 7.20822 8.6781 6.00167 8.6781 4.74359C8.6781 3.48551 9.18605 2.27896 10.0902 1.38937C10.9944 0.49977 12.2206 0 13.4993 0C14.778 0 16.0043 0.49977 16.9084 1.38937C17.8126 2.27896 18.3205 3.48551 18.3205 4.74359ZM20.249 36.0513C20.249 36.3029 20.1474 36.5442 19.9666 36.7221C19.7857 36.9 19.5405 37 19.2848 37H2.75381C2.1552 37 1.57289 36.8081 1.09506 36.4533C0.617236 36.0985 0.26991 35.6002 0.105675 35.0339C-0.0585597 34.4675 -0.0307582 33.8639 0.18487 33.3144C0.400499 32.765 0.792211 32.2997 1.30069 31.9889L6.39574 28.8752C6.8136 28.6198 7.15836 28.2638 7.39744 27.8408C7.63652 27.4178 7.76201 26.9418 7.76207 26.4578V25.6154H10.0512C11.074 25.6152 12.0549 25.2152 12.7781 24.5035L13.4993 23.7948L14.2196 24.5035C14.5779 24.8561 15.0033 25.1358 15.4715 25.3266C15.9398 25.5174 16.4416 25.6155 16.9484 25.6154H19.2848V26.4616C19.2849 26.9442 19.4098 27.4188 19.6476 27.8408C19.8854 28.2629 20.2284 28.6185 20.6443 28.8742L25.7027 31.9851C26.2109 32.2972 26.6019 32.7637 26.8167 33.3139C27.0314 33.8641 27.0583 34.4681 26.8931 35.0347C26.728 35.6012 26.3798 36.0995 25.9013 36.4541C25.4228 36.8086 24.84 37.0003 24.241 37H22.0136C22.1196 36.703 22.1775 36.3833 22.1775 36.0513V35.8141C22.1774 35.1247 21.923 34.4588 21.4615 33.9401C21.0001 33.4214 20.363 33.085 19.6685 32.9936L6.92608 31.3162C6.67464 31.2868 6.42155 31.3559 6.22146 31.5086C6.02137 31.6613 5.89033 31.8852 5.85665 32.1321C5.82297 32.379 5.88935 32.6291 6.04146 32.8282C6.19356 33.0274 6.41918 33.1597 6.66959 33.1966L19.413 34.8739C19.6444 34.9045 19.8567 35.0166 20.0105 35.1895C20.1642 35.3624 20.249 35.5844 20.249 35.8141V36.0513ZM15.584 23.162L14.4635 22.0596V18.5095C14.6063 18.5911 14.7413 18.6916 14.8627 18.8112L16.6746 20.5948C16.8555 20.7724 17.1007 20.872 17.3563 20.8718H20.249C20.4133 20.8717 20.5748 20.8303 20.7183 20.7516C20.8618 20.6728 20.9824 20.5593 21.0688 20.4217C21.1551 20.2842 21.2044 20.1273 21.2117 19.9658C21.2191 19.8043 21.1845 19.6436 21.111 19.499L20.1468 17.6016C20.0926 17.4862 20.0155 17.3828 19.9199 17.2973C19.8243 17.2119 19.7123 17.1462 19.5904 17.1041C19.4686 17.0621 19.3394 17.0446 19.2105 17.0526C19.0816 17.0606 18.9557 17.094 18.8402 17.1509C18.7247 17.2077 18.622 17.2867 18.5381 17.3834C18.4543 17.48 18.391 17.5922 18.3521 17.7134C18.3131 17.8345 18.2993 17.9621 18.3115 18.0886C18.3236 18.2151 18.3614 18.3379 18.4227 18.4497L18.6889 18.9744H17.7555L16.2262 17.4697C15.5029 16.7583 14.522 16.3586 13.4993 16.3586C12.4766 16.3586 11.4957 16.7583 10.7724 17.4697L9.24315 18.9744H8.30976L8.57589 18.4497C8.63718 18.3379 8.67502 18.2151 8.68716 18.0886C8.6993 17.9621 8.68549 17.8345 8.64655 17.7134C8.60761 17.5922 8.54434 17.48 8.46049 17.3834C8.37664 17.2867 8.27391 17.2077 8.15841 17.1509C8.04291 17.094 7.91698 17.0606 7.78811 17.0526C7.65923 17.0446 7.53003 17.0621 7.40817 17.1041C7.28631 17.1462 7.17427 17.2119 7.0787 17.2973C6.98313 17.3828 6.90598 17.4862 6.85183 17.6016L5.88759 19.499C5.81415 19.6436 5.77948 19.8043 5.78687 19.9658C5.79426 20.1273 5.84347 20.2842 5.92983 20.4217C6.01618 20.5593 6.13682 20.6728 6.2803 20.7516C6.42377 20.8303 6.58532 20.8717 6.74962 20.8718H9.64234C9.89806 20.8717 10.1433 20.7718 10.3241 20.5938L12.1359 18.8112C12.2583 18.6916 12.3924 18.5911 12.5351 18.5095V22.0596L11.4146 23.162C11.053 23.5179 10.5626 23.7178 10.0512 23.7179H4.22909C3.9155 23.718 3.60663 23.6427 3.32927 23.4987C3.0519 23.3548 2.81439 23.1464 2.63734 22.8918C2.46029 22.6371 2.34903 22.3438 2.31321 22.0373C2.27738 21.7308 2.31807 21.4203 2.43175 21.1327L5.32833 13.8038C5.61004 13.0912 6.10398 12.479 6.74542 12.0473C7.38686 11.6156 8.14588 11.3846 8.92302 11.3846H18.0756C18.8527 11.3846 19.6118 11.6156 20.2532 12.0473C20.8946 12.479 21.3886 13.0912 21.6703 13.8038L24.5678 21.1327C24.6816 21.4204 24.7222 21.7311 24.6863 22.0377C24.6504 22.3444 24.539 22.6379 24.3617 22.8926C24.1844 23.1473 23.9467 23.3556 23.669 23.4994C23.3914 23.6432 23.0823 23.7183 22.7686 23.7179H16.9465C16.435 23.7178 15.9446 23.5179 15.583 23.162" fill="#DC9E56"/>
<path d="M10.7 1.63252L12.1083 3.01538C12.4835 2.56904 12.7066 1.99609 12.7066 1.37283C12.7066 1.13424 12.6736 0.903758 12.6124 0.684642C11.8901 0.837212 11.2356 1.16994 10.7 1.63252ZM10.3265 1.99934C9.85541 2.52521 9.51658 3.16795 9.36121 3.87724C9.58434 3.93729 9.81905 3.96975 10.062 3.96975C10.6967 3.96975 11.2802 3.75064 11.7364 3.38382L10.3265 1.99934ZM13.5 0.59375C13.3793 0.59375 13.2587 0.598619 13.1397 0.608358C13.2025 0.853443 13.2355 1.10989 13.2355 1.37283C13.2355 2.14054 12.9529 2.84171 12.4851 3.38544L13.5 4.38201L16.2999 1.63252C15.5529 0.986535 14.5727 0.59375 13.5 0.59375ZM10.062 4.48914C9.79426 4.48914 9.53311 4.45668 9.28352 4.395C9.27358 4.51269 9.26862 4.63074 9.26865 4.74883C9.26865 5.80221 9.66864 6.76469 10.3265 7.49833L13.1264 4.74883L12.1116 3.75226C11.5579 4.21159 10.8438 4.48914 10.062 4.48914ZM17.7165 5.10266C17.7264 4.9858 17.7313 4.86732 17.7313 4.74883C17.7313 3.69545 17.3313 2.73297 16.6735 1.99934L13.8735 4.74883L14.8884 5.7454C15.4405 5.28607 16.1561 5.00852 16.938 5.00852C17.2057 5.00852 17.4669 5.04098 17.7165 5.10266ZM17.6388 5.62042C17.4156 5.56037 17.1809 5.52791 16.938 5.52791C16.3033 5.52791 15.7198 5.74702 15.2636 6.11384L16.6735 7.49833C17.1446 6.97407 17.4851 6.33133 17.6388 5.62042ZM14.8901 6.48066C14.5165 6.92863 14.2934 7.50157 14.2934 8.12483C14.2934 8.36343 14.3264 8.5939 14.3876 8.81302C15.1099 8.66045 15.7644 8.32772 16.2999 7.86514L14.8917 6.48228L14.8901 6.48066ZM14.5149 6.11222L13.5 5.11565L10.7 7.86514C11.4455 8.51113 12.4256 8.90391 13.5 8.90391C13.6206 8.90391 13.7413 8.89904 13.8603 8.8893C13.7975 8.64422 13.7644 8.38777 13.7644 8.12483C13.7644 7.35712 14.0471 6.65595 14.5149 6.11222Z" fill="black"/>
</svg>
