<svg width="28" height="24" viewBox="0 0 28 24" fill="none" xmlns="http://www.w3.org/2000/svg">
<path d="M20.3 1.20001C20.6864 1.20001 21 1.46641 21 1.79641C21 2.35201 21.1022 3.25921 21.6608 4.01161C22.1858 4.71721 23.177 5.37481 25.2 5.37481C25.5864 5.37481 25.9 5.64121 25.9 5.97121C25.8993 6.12982 25.8252 6.28169 25.6939 6.3935C25.5627 6.50531 25.3851 6.56793 25.2 6.56761C24.6834 6.56761 23.604 6.83521 22.652 7.45801C21.7238 8.06401 21 8.94721 21 10.146C20.9989 10.3044 20.9247 10.456 20.7935 10.5675C20.6623 10.6791 20.4848 10.7415 20.3 10.7412C20.115 10.7415 19.9374 10.6789 19.8061 10.5671C19.6749 10.4553 19.6008 10.3034 19.6 10.1448C19.6 9.54481 19.383 8.63161 18.7516 7.88401C18.1468 7.16881 17.1318 6.56761 15.4 6.56761C15.215 6.56793 15.0374 6.50531 14.9061 6.3935C14.7749 6.28169 14.7008 6.12982 14.7 5.97121C14.7 5.64121 15.0136 5.37481 15.4 5.37481C16.1168 5.37481 17.157 5.36281 18.0222 4.93441C18.8118 4.54201 19.6 3.72001 19.6 1.79641C19.6 1.46641 19.9136 1.20001 20.3 1.20001ZM20.356 4.47601C19.9559 5.16724 19.303 5.72731 18.4968 6.07081C19.0694 6.37561 19.5272 6.76201 19.8884 7.18681C20.0704 7.40281 20.2244 7.62601 20.356 7.85161C20.7379 7.33355 21.2265 6.87935 21.798 6.51121C22.0178 6.36721 22.246 6.23761 22.477 6.12121C21.5814 5.78452 20.8375 5.20757 20.3574 4.47721M10.2004 12.6372C9.4244 12.1393 8.79439 11.4932 8.36037 10.7502C7.92635 10.0072 7.70027 9.18773 7.70005 8.35681C7.70005 5.39281 10.521 2.99041 14 2.99041C15.26 2.99041 16.4346 3.30601 17.4188 3.84841C17.5728 3.75601 17.7268 3.62041 17.8598 3.39961C17.9438 3.25561 18.0306 3.06361 18.0936 2.79961C16.8661 2.14243 15.4473 1.79516 14 1.79761C9.74685 1.79761 6.30005 4.73401 6.30005 8.35681C6.30005 10.356 7.35005 12.1452 9.00345 13.3488L7.29825 18.6756C7.06025 19.4196 7.40605 20.2896 8.33425 20.6436C10.626 21.516 14.8442 22.2648 19.4922 20.6544C20.4862 20.3088 20.9202 19.3776 20.6318 18.5544L18.8706 13.5528C18.8603 13.5228 18.8472 13.4935 18.8314 13.4652C19.4647 13.0298 20.0137 12.5114 20.4582 11.9292C19.9513 11.9627 19.4474 11.8373 19.04 11.5764C18.4515 12.2447 17.6899 12.7865 16.8153 13.1593C15.9406 13.5321 14.9769 13.7255 14 13.7244C12.6289 13.7268 11.2943 13.3455 10.199 12.6384M17.619 14.1504L19.2906 18.9C19.3928 19.188 19.229 19.4592 18.963 19.5504C14.7448 21.0144 10.9284 20.3268 8.90545 19.5552C8.70525 19.4796 8.56245 19.2612 8.64925 18.9912L10.2228 14.076C11.3769 14.6293 12.6777 14.9186 14 14.916C15.3076 14.916 16.5396 14.6376 17.619 14.148" fill="#F8F8F8"/>
</svg>
